PathFileType	4	(X/Y/Z)	Walk6.trc
DataRate	CameraRate	NumFrames	NumMarkers	Units	OrigDataRate	OrigDataStartFrame	OrigNumFrames
200.000000	200.000000	8	60	mm	200.000000	697	789
Frame#	Times		RCAR		LToe		LTB1		LMT5		LMT1		LTB4		LTB3		LLFC		RWRR		RWRU		RACR1		RFA1		LUA1		LFA1		STRN		LFHD		LACR1		LElbow		LTH2		LCAR		C7		LPSI		RTB2		LASI		LWRU		RPSI		RLFC		CLAV		LWRR		RToe		RTB3		RMT1		RMT5		LTH1		RMFC		RTB1		LMFC		LTH4		LTH3		RCAL		RTB4		RLMAL		LBHD		RTH2		LTB2		RMMAL		RBHD		RBack		RElbow		RTH4		RASI		RTH3		LCAL		RUA1		LMMAL		RTH1		T10		LElbowM		LLMAL		RElbowM
			X1	Y1	Z1	X2	Y2	Z2	X3	Y3	Z3	X4	Y4	Z4	X5	Y5	Z5	X6	Y6	Z6	X7	Y7	Z7	X8	Y8	Z8	X9	Y9	Z9	X10	Y10	Z10	X11	Y11	Z11	X12	Y12	Z12	X13	Y13	Z13	X14	Y14	Z14	X15	Y15	Z15	X16	Y16	Z16	X17	Y17	Z17	X18	Y18	Z18	X19	Y19	Z19	X20	Y20	Z20	X21	Y21	Z21	X22	Y22	Z22	X23	Y23	Z23	X24	Y24	Z24	X25	Y25	Z25	X26	Y26	Z26	X27	Y27	Z27	X28	Y28	Z28	X29	Y29	Z29	X30	Y30	Z30	X31	Y31	Z31	X32	Y32	Z32	X33	Y33	Z33	X34	Y34	Z34	X35	Y35	Z35	X36	Y36	Z36	X37	Y37	Z37	X38	Y38	Z38	X39	Y39	Z39	X40	Y40	Z40	X41	Y41	Z41	X42	Y42	Z42	X43	Y43	Z43	X44	Y44	Z44	X45	Y45	Z45	X46	Y46	Z46	X47	Y47	Z47	X48	Y48	Z48	X49	Y49	Z49	X50	Y50	Z50	X51	Y51	Z51	X52	Y52	Z52	X53	Y53	Z53	X54	Y54	Z54	X55	Y55	Z55	X56	Y56	Z56	X57	Y57	Z57	X58	Y58	Z58	X59	Y59	Z59	X60	Y60	Z60

697	3.485	1096.1	871.98	366.93	1296.2	36.036	-19.88	1093.6	369.63	-30.151	1201.7	28.042	-103.57	1239.1	47.381	-9.8263	1096.4	284.86	-25.284	1102.6	199.77	-21.083	1042.9	506.71	-141.6	1096.3	910.34	302.42	1030.9	898.11	361.81	953.05	1496	190.06	1026.9	1041.1	330.03	921.63	1334.5	-255.07	953.35	1030.8	-302.97	1067.5	1290.4	0.87621	1102.1	1691.9	-20.525	938.2	1521.7	-179.66	877.46	1165.6	-294.19	1057.2	753.11	-181.69	989.03	865.06	-316.32	839.31	1553.9	16.787	775.28	1065.3	-62.109	704.84	302.49	178.11	1004.8	1032.2	-152.58	916.89	903.14	-313.85	770.31	1059.5	47.172	824.98	506.66	209.04	1005.1	1463.7	-6.5756	994.3	902.77	-260.04	640.83	31.407	88.125	647.57	247.87	106.98	612	66.082	78.107	557.57	61.471	161.05	976.64	813.4	-207.84	835.99	490.18	62.506	777.11	359.81	127.62	1040.6	508.87	0.28954	1002.2	731.92	-190.73	1027.9	651.39	-168.85	460.67	217.71	94.587	710.77	297.46	124.3	519.15	195.11	141.09	935.37	1691.7	-51.9	901.05	717.81	214.77	1125.2	283.1	-80.914	568.31	195.18	53.459	921.32	1687.2	88.89	785.88	1433	139.67	924.63	1157.5	317.58	840.27	717.41	212.98	982.02	1034.2	164.1	839.01	633.95	208.67	1015.7	45.12	-45.781	951.3	1317.9	266.06	1093	95.821	17.731	842.8	805.59	218.01	787.87	1197.4	-4.2152	847.03	1142.6	-207.62	1083.2	67.42	-81.605	898.4	1125.2	230.12
698	3.49	1098.5	871.51	366.26	1296.3	35.476	-19.75	1095.5	369.59	-30.253	1201.7	28.075	-103.58	1239.3	47.326	-9.6414	1097.8	284.77	-25.32	1103.4	199.63	-21.061	1045.5	506.88	-141.8	1099.2	910.08	301.82	1033.7	898.35	361.14	958.78	1497	189.35	1030.7	1041.4	329.39	927.45	1335.7	-255.84	959.42	1032.2	-303.77	1073.1	1291.3	0.26106	1107.8	1692.6	-21.015	944.05	1522.8	-180.13	883.2	1166.9	-295.19	1061.4	753.07	-181.95	995.53	866.46	-316.76	844.92	1554.8	16.215	780.79	1066.3	-62.789	713.86	304.54	178.96	1009.9	1032.9	-153.25	923.35	904.43	-314.42	775.66	1060.2	46.474	836	506.83	209.88	1010.7	1464.6	-7.1188	1000.7	904.34	-260.54	643.53	31.595	89.354	655.83	250.81	107.65	616.19	68.098	79.197	561.5	64.871	161.57	981.52	814.07	-208.29	847.65	489.79	63.236	786.75	360.7	128.75	1043.4	509.14	-0.18011	1006.4	732.37	-191.08	1031.2	651.64	-169.13	468.93	224.17	95.215	719.85	299.68	124.65	526.63	200.01	141.87	941.07	1692.6	-52.401	909.46	718.35	214.86	1126.5	282.81	-80.924	575.95	199.05	54.322	927	1688.2	88.379	791.62	1434	139.25	929.17	1158.5	316.71	848.7	717.19	213	987.5	1035.2	163.24	848.47	633.68	209.02	1015.8	45.112	-45.778	956.59	1318.8	265.32	1093.2	95.732	17.763	850.19	805.43	217.56	793.27	1198.3	-4.9798	852.64	1143.9	-208.68	1083.3	67.307	-81.544	902.91	1126.4	229.27
699	3.495	1101	871.04	365.61	1296.4	34.955	-19.629	1097.3	369.53	-30.353	1201.7	28.107	-103.58	1239.5	47.264	-9.4594	1099.2	284.66	-25.354	1104.3	199.49	-21.036	1048.1	507.03	-142	1102.1	909.8	301.22	1036.4	898.57	360.49	964.42	1497.8	188.68	1034.4	1041.6	328.77	933.26	1336.9	-256.6	965.51	1033.5	-304.6	1078.6	1292.1	-0.31095	1113.5	1693.4	-21.476	949.89	1523.8	-180.58	888.94	1168.1	-296.22	1065.6	752.97	-182.24	1002.1	867.83	-317.2	850.5	1555.7	15.64	786.26	1067.2	-63.495	723.11	306.56	179.71	1014.9	1033.5	-153.82	929.87	905.68	-315.03	780.95	1060.9	45.741	847.09	507.02	210.68	1016.3	1465.5	-7.6329	1007	905.9	-261.05	646.69	31.938	90.726	664.32	253.74	108.23	620.83	70.207	80.356	565.95	68.423	162.2	986.27	814.67	-208.72	859.32	489.52	63.901	796.48	361.59	129.86	1046.2	509.41	-0.62713	1010.4	732.76	-191.41	1034.5	651.82	-169.39	477.46	230.4	95.799	729.13	302.01	124.84	534.42	204.82	142.6	946.74	1693.5	-52.884	917.88	718.93	214.95	1127.8	282.51	-80.937	583.87	202.86	55.131	932.63	1689	87.889	797.28	1435	138.78	933.7	1159.4	315.88	857.13	717.01	213.03	992.92	1036.1	162.44	857.95	633.45	209.35	1015.8	45.102	-45.772	961.81	1319.7	264.61	1093.3	95.649	17.807	857.58	805.29	217.14	798.63	1199.2	-5.7465	858.21	1145.1	-209.8	1083.5	67.196	-81.481	907.37	1127.6	228.47
700	3.5	1103.5	870.56	364.97	1296.4	34.479	-19.52	1099.1	369.46	-30.454	1201.6	28.136	-103.57	1239.6	47.197	-9.2854	1100.5	284.56	-25.39	1105	199.33	-21.012	1050.6	507.16	-142.18	1105	909.52	300.64	1039.2	898.77	359.88	969.98	1498.7	188.04	1038.2	1041.9	328.15	939.06	1338	-257.37	971.63	1034.8	-305.44	1084	1292.9	-0.83998	1119.1	1694.1	-21.907	955.71	1524.8	-181.03	894.7	1169.2	-297.29	1069.6	752.81	-182.55	1008.7	869.16	-317.65	856.03	1556.5	15.064	791.69	1068.1	-64.222	732.56	308.56	180.37	1019.8	1034	-154.28	936.42	906.87	-315.66	786.21	1061.5	44.979	858.24	507.26	211.45	1021.8	1466.3	-8.1193	1013.4	907.44	-261.57	650.38	32.457	92.241	673.01	256.65	108.74	625.97	72.398	81.587	570.93	72.099	162.94	990.9	815.2	-209.12	870.98	489.38	64.503	806.26	362.49	130.99	1049	509.67	-1.0489	1014.3	733.08	-191.71	1037.7	651.96	-169.64	486.25	236.38	96.329	738.59	304.44	124.89	542.51	209.51	143.28	952.38	1694.3	-53.351	926.28	719.56	215.04	1129.1	282.2	-80.955	592.04	206.59	55.878	938.22	1689.9	87.42	802.86	1435.9	138.27	938.2	1160.3	315.09	865.56	716.88	213.06	998.26	1037	161.7	867.44	633.29	209.67	1015.9	45.092	-45.764	966.95	1320.6	263.95	1093.4	95.577	17.86	864.97	805.17	216.75	803.96	1200.1	-6.5089	863.74	1146.2	-210.98	1083.6	67.087	-81.418	911.78	1128.8	227.74
701	3.505	1106	870.08	364.33	1296.5	34.051	-19.426	1100.9	369.38	-30.56	1201.6	28.161	-103.56	1239.8	47.127	-9.1243	1101.7	284.45	-25.432	1105.8	199.17	-20.995	1053.1	507.28	-142.37	1107.9	909.23	300.07	1041.9	898.95	359.29	975.46	1499.4	187.44	1041.9	1042.1	327.55	944.85	1339.1	-258.13	977.77	1036.1	-306.28	1089.5	1293.7	-1.3262	1124.7	1694.9	-22.309	961.51	1525.8	-181.47	900.47	1170.3	-298.38	1073.6	752.63	-182.87	1015.3	870.47	-318.1	861.53	1557.4	14.488	797.08	1069	-64.962	742.2	310.52	180.93	1024.6	1034.4	-154.64	943.02	908.02	-316.31	791.43	1062.1	44.196	869.42	507.55	212.19	1027.4	1467.1	-8.5796	1019.9	908.95	-262.11	654.65	33.168	93.892	681.92	259.52	109.17	631.63	74.658	82.89	576.48	75.87	163.81	995.4	815.66	-209.5	882.59	489.38	65.042	816.08	363.38	132.15	1051.8	509.94	-1.4476	1018.1	733.36	-191.99	1040.8	652.07	-169.88	495.26	242.05	96.796	748.21	306.95	124.8	550.87	214.05	143.92	958	1695.1	-53.802	934.67	720.23	215.14	1130.4	281.9	-80.982	600.48	210.2	56.56	943.77	1690.7	86.969	808.34	1436.8	137.72	942.67	1161.1	314.33	874	716.79	213.1	1003.5	1037.9	161.03	876.93	633.18	209.96	1015.9	45.08	-45.757	972.02	1321.3	263.31	1093.5	95.518	17.919	872.34	805.1	216.38	809.26	1201	-7.2607	869.25	1147.3	-212.2	1083.7	66.981	-81.359	916.13	1129.8	227.06
702	3.51	1108.6	869.61	363.7	1296.6	33.673	-19.349	1102.6	369.31	-30.676	1201.6	28.18	-103.55	1239.9	47.059	-8.9804	1103	284.35	-25.484	1106.6	199	-20.988	1055.5	507.39	-142.56	1110.9	908.94	299.51	1044.7	899.12	358.74	980.85	1500.2	186.89	1045.6	1042.2	326.95	950.63	1340.1	-258.88	983.95	1037.4	-307.14	1094.9	1294.4	-1.7697	1130.2	1695.6	-22.68	967.3	1526.6	-181.89	906.26	1171.4	-299.5	1077.5	752.44	-183.19	1022	871.74	-318.56	867	1558.2	13.911	802.42	1069.9	-65.707	752.02	312.45	181.39	1029.4	1034.7	-154.91	949.65	909.11	-317	796.61	1062.7	43.401	880.64	507.9	212.88	1032.8	1467.8	-9.0156	1026.4	910.43	-262.66	659.55	34.082	95.67	691.02	262.32	109.55	637.84	76.975	84.265	582.62	79.704	164.81	999.78	816.07	-209.84	894.13	489.53	65.522	825.93	364.25	133.35	1054.7	510.22	-1.8301	1021.9	733.61	-192.24	1043.9	652.16	-170.11	504.47	247.39	97.196	758	309.52	124.59	559.51	218.43	144.5	963.59	1695.9	-54.238	943.05	720.96	215.23	1131.6	281.6	-81.019	609.16	213.7	57.176	949.27	1691.4	86.535	813.74	1437.6	137.12	947.12	1161.9	313.61	882.42	716.76	213.13	1008.7	1038.8	160.44	886.42	633.15	210.23	1016	45.068	-45.753	977.01	1322.1	262.72	1093.6	95.475	17.982	879.72	805.06	216.03	814.53	1201.9	-7.9962	874.74	1148.3	-213.46	1083.8	66.878	-81.307	920.43	1130.8	226.44
703	3.515	1111.1	869.15	363.09	1296.6	33.345	-19.289	1104.3	369.23	-30.805	1201.6	28.193	-103.54	1240	46.993	-8.8572	1104.2	284.25	-25.548	1107.3	198.83	-20.995	1057.9	507.49	-142.76	1113.8	908.65	298.97	1047.6	899.27	358.21	986.15	1500.9	186.38	1049.4	1042.4	326.36	956.4	1341	-259.61	990.15	1038.5	-307.99	1100.2	1295.1	-2.1711	1135.7	1696.3	-23.023	973.07	1527.5	-182.31	912.07	1172.4	-300.63	1081.3	752.26	-183.49	1028.8	872.99	-319.03	872.43	1559	13.335	807.72	1070.8	-66.45	762.01	314.35	181.77	1034.1	1034.9	-155.1	956.32	910.16	-317.71	801.76	1063.3	42.6	891.86	508.34	213.52	1038.3	1468.5	-9.429	1032.9	911.87	-263.22	665.14	35.199	97.556	700.31	265.04	109.87	644.62	79.33	85.708	589.35	83.564	165.92	1004.1	816.44	-210.16	905.61	489.82	65.948	835.8	365.1	134.61	1057.7	510.52	-2.2062	1025.6	733.83	-192.47	1047	652.24	-170.32	513.88	252.37	97.525	767.93	312.12	124.27	568.4	222.63	145.03	969.15	1696.7	-54.661	951.41	721.74	215.33	1132.8	281.3	-81.069	618.1	217.06	57.729	954.74	1692.2	86.115	819.05	1438.4	136.47	951.54	1162.6	312.92	890.84	716.8	213.15	1013.9	1039.7	159.94	895.89	633.2	210.47	1016	45.056	-45.752	981.92	1322.7	262.16	1093.7	95.449	18.045	887.08	805.07	215.71	819.78	1202.7	-8.7107	880.22	1149.2	-214.76	1083.9	66.777	-81.262	924.68	1131.7	225.86
704	3.52	1113.7	868.71	362.5	1296.7	33.067	-19.246	1106	369.14	-30.948	1201.6	28.198	-103.54	1240.1	46.932	-8.7564	1105.4	284.16	-25.628	1108	198.66	-21.018	1060.2	507.58	-142.97	1116.7	908.36	298.44	1050.4	899.42	357.7	991.38	1501.5	185.91	1053.1	1042.6	325.78	962.17	1341.9	-260.33	996.39	1039.7	-308.84	1105.6	1295.7	-2.5314	1141.2	1697	-23.337	978.81	1528.2	-182.72	917.9	1173.3	-301.78	1085.1	752.11	-183.78	1035.5	874.2	-319.51	877.84	1559.8	12.763	812.97	1071.7	-67.181	772.14	316.2	182.07	1038.8	1035	-155.22	963.02	911.17	-318.44	806.88	1063.8	41.802	903.07	508.86	214.11	1043.7	1469.2	-9.8212	1039.4	913.28	-263.8	671.44	36.507	99.528	709.79	267.67	110.15	651.99	81.707	87.211	596.68	87.412	167.16	1008.3	816.78	-210.44	916.99	490.25	66.325	845.67	365.94	135.92	1060.7	510.81	-2.5867	1029.2	734.05	-192.68	1050.1	652.33	-170.52	523.45	256.96	97.787	777.99	314.72	123.87	577.54	226.63	145.51	974.7	1697.5	-55.07	959.75	722.59	215.43	1133.9	281	-81.134	627.27	220.25	58.222	960.17	1692.9	85.709	824.27	1439.2	135.77	955.93	1163.2	312.27	899.26	716.9	213.17	1018.9	1040.6	159.51	905.36	633.33	210.67	1016	45.043	-45.756	986.77	1323.4	261.63	1093.8	95.439	18.105	894.44	805.12	215.41	825.01	1203.5	-9.401	885.69	1150	-216.08	1084	66.678	-81.226	928.87	1132.5	225.32
